<?xml version="1.0" encoding="utf-8"?>
<!-- Generator: Adobe Illustrator 26.0.2, SVG Export Plug-In . SVG Version: 6.00 Build 0)  -->
<svg version="1.1" id="Layer_1" xmlns="http://www.w3.org/2000/svg" xmlns:xlink="http://www.w3.org/1999/xlink" x="0px" y="0px"
	 viewBox="0 0 30 30" style="enable-background:new 0 0 30 30;" xml:space="preserve">
<style type="text/css">
	.st0{fill:#FF5F1F;}
</style>
<path class="st0" d="M26.9,16.7H3.1c-1.7,0-3.1-1.4-3.1-3.1l0,0c0-1.7,1.4-3.1,3.1-3.1h23.8c1.7,0,3.1,1.4,3.1,3.1l0,0
	C30,15.3,28.6,16.7,26.9,16.7z"/>
<path class="st0" d="M11.9,26.9V3.1C11.9,1.4,13.3,0,15,0l0,0c1.7,0,3.1,1.4,3.1,3.1v23.8c0,1.7-1.4,3.1-3.1,3.1l0,0
	C13.3,30,11.9,28.6,11.9,26.9z"/>
</svg>
